<?xml version="1.0" encoding="utf-8"?>
<!-- Generator: Adobe Illustrator 17.1.0, SVG Export Plug-In . SVG Version: 6.00 Build 0)  -->
<!DOCTYPE svg PUBLIC "-//W3C//DTD SVG 1.1//EN" "http://www.w3.org/Graphics/SVG/1.1/DTD/svg11.dtd">
<svg version="1.1" id="Layer_1" xmlns="http://www.w3.org/2000/svg" xmlns:xlink="http://www.w3.org/1999/xlink" x="0px" y="0px"
	 viewBox="0 0 350 150" enable-background="new 0 0 350 150" xml:space="preserve">
<radialGradient id="SVGID_1_" cx="47.1444" cy="72.5162" r="30.4078" gradientUnits="userSpaceOnUse">
	<stop  offset="0" style="stop-color:#98CA4D"/>
	<stop  offset="0" style="stop-color:#94C566"/>
	<stop  offset="1" style="stop-color:#4C7F28"/>
</radialGradient>
<path fill="url(#SVGID_1_)" stroke="#71CACA" stroke-width="0.2" stroke-miterlimit="10" d="M26.4,92.4c-4.1-4.8-6.2-10.3-6.2-16.5
	c0-7.4,2.5-13.7,7.5-18.9c5.6-5.8,13-8.7,22.4-8.7c8.1,0,14.5,2.1,19.1,6.2c4.4,3.9,6.5,8.9,6.5,15.1c0,5.2-1.6,9.6-4.7,13.3
	c-3.1,3.7-6.6,5.5-10.4,5.5c-2.3,0-3.9-0.5-5-1.6c-1.1-1.1-1.6-2.4-1.6-3.9c0-0.3,0-0.5,0.1-0.8c0-0.3,0.1-0.6,0.2-0.9
	c-1.2,2.6-2.7,4.5-4.6,5.6s-3.7,1.6-5.7,1.6c-2.8,0-5.1-1-6.8-3c-1.7-2-2.6-4.6-2.6-7.8c0-4.5,1.5-8.5,4.5-12c3-3.5,6.2-5.2,9.6-5.2
	c2.3,0,4.2,0.7,5.8,2c1.5,1.3,2.3,3,2.4,4.9l1.7-5.7l5.8-0.9L59,76.3c-0.3,1.2-0.6,2.1-0.8,2.8C58,79.8,58,80.5,58,81
	c0,1,0.3,1.8,0.9,2.2c0.6,0.5,1.3,0.7,2.1,0.7c2.6,0,4.9-1.4,7-4.1c2.1-2.7,3.1-6.3,3.1-10.6c0-5.3-1.8-9.4-5.5-12.5
	c-3.7-3-8.7-4.5-14.9-4.5c-8.7,0-15.3,2.5-19.9,7.6c-3.9,4.3-5.9,9.7-5.9,16.2c0,5.7,1.9,10.5,5.6,14.4c4.4,4.6,10.6,6.9,18.7,6.9
	c3.8,0,7.3-0.6,10.6-1.8c3.3-1.2,6.2-2.8,9-4.8l3.2,2.3c-2.1,1.8-6,4.3-10.1,5.9c-4.1,1.6-8.6,2.4-13.5,2.4
	C38.8,101.3,31.5,98.3,26.4,92.4z M53.7,65.5c-0.9-1.1-2.2-1.7-3.9-1.7c-2.6,0-4.8,1.5-6.7,4.6c-1.9,3.1-2.9,6.1-2.9,9.1
	c0,2.2,0.5,3.9,1.5,5.1c1,1.2,2.2,1.8,3.7,1.8c3.1,0,5.5-1.8,7.2-5.4c1.7-3.6,2.6-6.8,2.6-9.7C55.1,67.9,54.7,66.6,53.7,65.5z"/>
<path fill="#8DC63F" d="M108.4,67.6c1.4-1.5,3.3-2.2,5.5-2.2c3,0,5.2,1,6.6,3c0.8,1.1,1.2,2.2,1.2,3.4h-3.8c-0.2-0.9-0.5-1.5-0.9-2
	c-0.7-0.8-1.7-1.2-3-1.2c-1.3,0-2.4,0.6-3.2,1.7c-0.8,1.1-1.2,2.7-1.2,4.7c0,2,0.4,3.5,1.2,4.5c0.8,1,1.9,1.5,3.1,1.5
	c1.3,0,2.3-0.4,2.9-1.3c0.4-0.5,0.7-1.2,0.9-2.1h3.7c-0.3,2-1.1,3.6-2.5,4.8c-1.3,1.2-3,1.8-5.1,1.8c-2.6,0-4.6-0.8-6-2.5
	c-1.5-1.7-2.2-4-2.2-6.9C105.9,71.8,106.7,69.3,108.4,67.6z"/>
<path fill="#8DC63F" d="M135,65.8h4.3l-6,11.2v6.7h-3.8V77l-6.2-11.2h4.4l3.7,7.8L135,65.8z"/>
<path fill="#8DC63F" d="M154.8,67.7c0.5,0.8,0.8,1.7,0.8,2.7c0,1.1-0.3,2-0.8,2.6c-0.3,0.4-0.8,0.7-1.4,1c0.9,0.3,1.6,0.9,2.1,1.6
	c0.5,0.7,0.7,1.6,0.7,2.6c0,1.1-0.3,2-0.8,2.9c-0.3,0.6-0.8,1-1.3,1.4c-0.6,0.4-1.3,0.7-2,0.9c-0.8,0.2-1.6,0.2-2.5,0.2h-8.1v-18
	h8.7C152.3,65.8,153.9,66.4,154.8,67.7z M145,68.9v4h4.4c0.8,0,1.4-0.1,1.9-0.4c0.5-0.3,0.7-0.8,0.7-1.6c0-0.8-0.3-1.4-1-1.7
	c-0.6-0.2-1.3-0.3-2.1-0.3H145z M145,75.8v4.8h4.4c0.8,0,1.4-0.1,1.8-0.3c0.8-0.4,1.2-1.1,1.2-2.2c0-0.9-0.4-1.6-1.1-1.9
	c-0.4-0.2-1-0.3-1.8-0.3H145z"/>
<path fill="#8DC63F" d="M172.7,68.9h-9.5v3.8h8.7v3.1h-8.7v4.6h10v3.2h-13.6v-18h13.2V68.9z"/>
<path fill="#8DC63F" d="M187.6,66.2c0.7,0.3,1.2,0.7,1.7,1.3c0.4,0.5,0.7,1,0.9,1.5c0.2,0.6,0.3,1.2,0.3,1.9c0,0.9-0.2,1.7-0.6,2.5
	c-0.4,0.8-1.1,1.4-2.1,1.8c0.8,0.3,1.4,0.8,1.8,1.4c0.3,0.6,0.5,1.6,0.5,2.8v1.2c0,0.8,0,1.4,0.1,1.7c0.1,0.5,0.3,0.8,0.7,1v0.5
	h-4.2c-0.1-0.4-0.2-0.7-0.2-1c-0.1-0.5-0.2-1-0.2-1.6l0-1.7c0-1.1-0.2-1.9-0.6-2.3c-0.4-0.4-1.1-0.6-2.1-0.6h-3.7v7.1h-3.7v-18h8.6
	C186,65.8,187,65.9,187.6,66.2z M179.9,68.9v4.8h4c0.8,0,1.4-0.1,1.8-0.3c0.7-0.3,1.1-1,1.1-2c0-1.1-0.3-1.8-1-2.2
	c-0.4-0.2-1-0.3-1.7-0.3H179.9z"/>
<path fill="#006838" d="M206.1,66.3c1.8,0.9,2.8,2.6,3.2,4.9h-2.4c-0.3-1.3-0.9-2.3-1.8-2.9c-0.9-0.6-2-0.9-3.4-0.9
	c-1.6,0-3,0.6-4.1,1.9s-1.7,3.1-1.7,5.6c0,2.1,0.5,3.9,1.4,5.2s2.4,2,4.5,2c1.6,0,2.9-0.5,3.9-1.4c1-0.9,1.6-2.5,1.6-4.6h-5.6v-2
	h7.9v9.6h-1.6l-0.6-2.3c-0.8,0.9-1.5,1.5-2.1,1.9c-1,0.6-2.4,0.9-4,0.9c-2.1,0-3.9-0.7-5.4-2.1c-1.6-1.7-2.5-4.1-2.5-7.1
	c0-3,0.8-5.4,2.4-7.2c1.5-1.7,3.5-2.5,5.9-2.5C203.5,65.4,204.9,65.7,206.1,66.3z"/>
<path fill="#006838" d="M212.2,65.8h2.8l5.2,8.6l5.2-8.6h2.9l-6.8,10.7v7.2H219v-7.2L212.2,65.8z"/>
<path fill="#006838" d="M230.2,65.8h3.5l5.2,15.2l5.1-15.2h3.5v17.9h-2.3V73.2c0-0.4,0-1,0-1.8c0-0.8,0-1.8,0-2.7l-5.1,15.1h-2.4
	l-5.2-15.1v0.5c0,0.4,0,1.1,0,2c0,0.9,0,1.6,0,2v10.6h-2.3V65.8z"/>
<path fill="#006838" d="M251.1,65.8h2.9l8.9,14.5V65.8h2.3v17.9h-2.7l-9.1-14.5v14.5h-2.3V65.8z"/>
<path fill="#006838" d="M274.4,65.8h2.7l6.5,17.9H281l-1.9-5.4h-7l-1.9,5.4h-2.5L274.4,65.8z M278.4,76.4l-2.8-7.9l-2.9,7.9H278.4z"
	/>
<path fill="#006838" d="M287.4,78c0.1,1,0.3,1.8,0.7,2.5c0.8,1.2,2.1,1.8,4.1,1.8c0.9,0,1.7-0.1,2.4-0.4c1.4-0.5,2.1-1.4,2.1-2.7
	c0-1-0.3-1.7-0.9-2.1c-0.6-0.4-1.5-0.8-2.8-1.1l-2.4-0.5c-1.5-0.4-2.6-0.8-3.3-1.2c-1.1-0.7-1.7-1.9-1.7-3.4c0-1.6,0.5-2.9,1.6-4
	c1.1-1,2.6-1.6,4.6-1.6c1.8,0,3.4,0.5,4.7,1.4c1.3,0.9,1.9,2.4,1.9,4.4h-2.3c-0.1-1-0.4-1.7-0.7-2.2c-0.7-0.9-1.9-1.4-3.6-1.4
	c-1.4,0-2.4,0.3-3,0.9c-0.6,0.6-0.9,1.3-0.9,2.1c0,0.9,0.4,1.5,1.1,1.9c0.5,0.3,1.5,0.6,3.2,1l2.4,0.6c1.2,0.3,2.1,0.7,2.7,1.1
	c1.1,0.8,1.7,2.1,1.7,3.7c0,2-0.7,3.4-2.1,4.3c-1.4,0.9-3,1.3-4.9,1.3c-2.2,0-3.9-0.6-5.1-1.7c-1.2-1.1-1.8-2.7-1.8-4.6H287.4z"/>
<path fill="#006838" d="M303.1,65.8h2.5v17.9h-2.5V65.8z"/>
<path fill="#006838" d="M309.7,65.8h13V68h-10.6v5.4h9.8v2.1h-9.8v6.1h10.8v2.1h-13.2V65.8z"/>
<path fill="#006838" d="M339.2,65.8V68h-6v15.8h-2.5V68h-6v-2.1H339.2z"/>
</svg>
